# xmcd
#
# Track frame offsets:
# 150
# 14205
# 26323
# 40849
# 50426
# 65778
# 84737
# 100519
# 113601
# 134055
# 143856
# 162263
# 175857
# 193472
# 211463
# 226966
#
# Disc length: 3246 seconds
#
#
# Revision: 0
# Processed by: cddbd v1.5.2PL0 Copyright (c) Steve Scherf et al.
# Submitted via: FreeRIP 2.60 
#
DISCID=e70cac10
DTITLE=Wayne Erbsen and Laura Boosinger - Rural Roots Of Bluegrass
DYEAR=2003
DGENRE=Bluegrass
TTITLE0=Banjo Pickin' Girl
TTITLE1=Katie Dear
TTITLE2=Blue Ridge Mountain Blues
TTITLE3=Man Of Constant Sorrow
TTITLE4=Short Life Of Trouble
TTITLE5=When You And I Were Young, Maggie
TTITLE6=Sandy Bottom
TTITLE7=Dig A Hole In The Meadow
TTITLE8=Dream Of The Miner's Child
TTITLE9=Rabbit In The Log
TTITLE10=Don't This Road Look Rough And Rocky
TTITLE11=Handsome Molly
TTITLE12=Little Rosewood Casket
TTITLE13=I'll Be All Smiles Tonight
TTITLE14=Old Mother Flanagan
TTITLE15=Bury Me Beneath The Willow
EXTD=
EXTT0=
EXTT1=
EXTT2=
EXTT3=
EXTT4=
EXTT5=
EXTT6=
EXTT7=
EXTT8=
EXTT9=
EXTT10=
EXTT11=
EXTT12=
EXTT13=
EXTT14=
EXTT15=
PLAYORDER=
